REM DIRINDEX 1\2\4,1\2\5,1\2\6,1\2\7,1\3\8,1\3\9
REM DIRNAME cjc037,folder01,folder02,folder03,folder04,folder05,folder06,folder07,folder08
TITLE ""
FILE "Disc1Track12.mp3" MP3
  TRACK 01 AUDIO
    TITLE "0:"
    INDEX 01 00:00:00
  TRACK 02 AUDIO
    TITLE "4:cjc037_0690"
    INDEX 01 00:00:07
  TRACK 03 AUDIO
    TITLE "0:"
    INDEX 01 00:01:40
  TRACK 04 AUDIO
    TITLE "4:cjc037_0691"
    INDEX 01 00:02:40
  TRACK 05 AUDIO
    TITLE "0:"
    INDEX 01 00:04:11
  TRACK 06 AUDIO
    TITLE "5:cjc037_0692"
    INDEX 01 00:04:56
  TRACK 07 AUDIO
    TITLE "0:"
    INDEX 01 00:08:52
  TRACK 08 AUDIO
    TITLE "6:cjc037_0693"
    INDEX 01 00:12:14
  TRACK 09 AUDIO
    TITLE "0:"
    INDEX 01 00:15:44
  TRACK 10 AUDIO
    TITLE "7:cjc037_0694"
    INDEX 01 00:19:05
  TRACK 11 AUDIO
    TITLE "0:"
    INDEX 01 00:21:68
  TRACK 12 AUDIO
    TITLE "4:cjc037_0695"
    INDEX 01 00:24:27
  TRACK 13 AUDIO
    TITLE "0:"
    INDEX 01 00:26:13
  TRACK 14 AUDIO
    TITLE "5:cjc037_0696"
    INDEX 01 00:26:67
  TRACK 15 AUDIO
    TITLE "0:"
    INDEX 01 00:30:10
  TRACK 16 AUDIO
    TITLE "6:cjc037_0697"
    INDEX 01 00:33:46
  TRACK 17 AUDIO
    TITLE "0:"
    INDEX 01 00:37:05
  TRACK 18 AUDIO
    TITLE "7:cjc037_0698"
    INDEX 01 00:40:40
  TRACK 19 AUDIO
    TITLE "0:"
    INDEX 01 00:43:23
  TRACK 20 AUDIO
    TITLE "4:cjc037_0699"
    INDEX 01 00:45:59
  TRACK 21 AUDIO
    TITLE "0:"
    INDEX 01 00:47:38
  TRACK 22 AUDIO
    TITLE "5:cjc037_0700"
    INDEX 01 00:48:12
  TRACK 23 AUDIO
    TITLE "0:"
    INDEX 01 00:54:29
  TRACK 24 AUDIO
    TITLE "6:cjc037_0701"
    INDEX 01 00:57:60
  TRACK 25 AUDIO
    TITLE "0:"
    INDEX 01 01:03:41
  TRACK 26 AUDIO
    TITLE "7:cjc037_0702"
    INDEX 01 01:07:02
  TRACK 27 AUDIO
    TITLE "0:"
    INDEX 01 01:11:31
  TRACK 28 AUDIO
    TITLE "4:cjc037_0703"
    INDEX 01 01:13:67
  TRACK 29 AUDIO
    TITLE "0:"
    INDEX 01 01:15:58
  TRACK 30 AUDIO
    TITLE "5:cjc037_0704"
    INDEX 01 01:16:30
  TRACK 31 AUDIO
    TITLE "0:"
    INDEX 01 01:23:50
  TRACK 32 AUDIO
    TITLE "6:cjc037_0705"
    INDEX 01 01:27:10
  TRACK 33 AUDIO
    TITLE "0:"
    INDEX 01 01:32:59
  TRACK 34 AUDIO
    TITLE "7:cjc037_0706"
    INDEX 01 01:36:17
  TRACK 35 AUDIO
    TITLE "0:"
    INDEX 01 01:40:62
  TRACK 36 AUDIO
    TITLE "4:cjc037_0707"
    INDEX 01 01:43:21
  TRACK 37 AUDIO
    TITLE "0:"
    INDEX 01 01:45:08
  TRACK 38 AUDIO
    TITLE "5:cjc037_0708"
    INDEX 01 01:45:61
  TRACK 39 AUDIO
    TITLE "0:"
    INDEX 01 01:50:31
  TRACK 40 AUDIO
    TITLE "6:cjc037_0709"
    INDEX 01 01:53:67
  TRACK 41 AUDIO
    TITLE "0:"
    INDEX 01 01:57:35
  TRACK 42 AUDIO
    TITLE "7:cjc037_0710"
    INDEX 01 02:00:71
  TRACK 43 AUDIO
    TITLE "0:"
    INDEX 01 02:03:67
  TRACK 44 AUDIO
    TITLE "4:cjc037_0711"
    INDEX 01 02:06:26
  TRACK 45 AUDIO
    TITLE "0:"
    INDEX 01 02:08:03
  TRACK 46 AUDIO
    TITLE "5:cjc037_0712"
    INDEX 01 02:08:54
  TRACK 47 AUDIO
    TITLE "0:"
    INDEX 01 02:11:53
  TRACK 48 AUDIO
    TITLE "6:cjc037_0713"
    INDEX 01 02:15:11
  TRACK 49 AUDIO
    TITLE "0:"
    INDEX 01 02:17:55
  TRACK 50 AUDIO
    TITLE "7:cjc037_0714"
    INDEX 01 02:21:16
  TRACK 51 AUDIO
    TITLE "0:"
    INDEX 01 02:23:34
  TRACK 52 AUDIO
    TITLE "4:cjc037_0715"
    INDEX 01 02:25:68
  TRACK 53 AUDIO
    TITLE "0:"
    INDEX 01 02:27:56
  TRACK 54 AUDIO
    TITLE "5:cjc037_0716"
    INDEX 01 02:28:34
  TRACK 55 AUDIO
    TITLE "0:"
    INDEX 01 02:31:61
  TRACK 56 AUDIO
    TITLE "6:cjc037_0717"
    INDEX 01 02:35:22
  TRACK 57 AUDIO
    TITLE "0:"
    INDEX 01 02:37:52
  TRACK 58 AUDIO
    TITLE "7:cjc037_0718"
    INDEX 01 02:41:13
  TRACK 59 AUDIO
    TITLE "0:"
    INDEX 01 02:43:12
  TRACK 60 AUDIO
    TITLE "4:cjc037_0719"
    INDEX 01 02:45:44
  TRACK 61 AUDIO
    TITLE "0:"
    INDEX 01 02:47:29
  TRACK 62 AUDIO
    TITLE "5:cjc037_0720"
    INDEX 01 02:48:07
  TRACK 63 AUDIO
    TITLE "0:"
    INDEX 01 02:53:14
  TRACK 64 AUDIO
    TITLE "6:cjc037_0721"
    INDEX 01 02:56:53
  TRACK 65 AUDIO
    TITLE "0:"
    INDEX 01 03:01:49
  TRACK 66 AUDIO
    TITLE "7:cjc037_0722"
    INDEX 01 03:05:11
  TRACK 67 AUDIO
    TITLE "0:"
    INDEX 01 03:09:19
  TRACK 68 AUDIO
    TITLE "4:cjc037_0723"
    INDEX 01 03:11:61
  TRACK 69 AUDIO
    TITLE "0:"
    INDEX 01 03:13:50
  TRACK 70 AUDIO
    TITLE "5:cjc037_0724"
    INDEX 01 03:14:24
  TRACK 71 AUDIO
    TITLE "0:"
    INDEX 01 03:17:54
  TRACK 72 AUDIO
    TITLE "6:cjc037_0725"
    INDEX 01 03:21:10
  TRACK 73 AUDIO
    TITLE "0:"
    INDEX 01 03:24:26
  TRACK 74 AUDIO
    TITLE "7:cjc037_0726"
    INDEX 01 03:27:62
  TRACK 75 AUDIO
    TITLE "0:"
    INDEX 01 03:30:39
  TRACK 76 AUDIO
    TITLE "4:cjc037_0727"
    INDEX 01 03:32:73
  TRACK 77 AUDIO
    TITLE "0:"
    INDEX 01 03:34:58
  TRACK 78 AUDIO
    TITLE "5:cjc037_0728"
    INDEX 01 03:35:32
  TRACK 79 AUDIO
    TITLE "0:"
    INDEX 01 03:39:53
  TRACK 80 AUDIO
    TITLE "6:cjc037_0729"
    INDEX 01 03:43:14
  TRACK 81 AUDIO
    TITLE "0:"
    INDEX 01 03:46:34
  TRACK 82 AUDIO
    TITLE "7:cjc037_0730"
    INDEX 01 03:49:69
  TRACK 83 AUDIO
    TITLE "0:"
    INDEX 01 03:52:56
  TRACK 84 AUDIO
    TITLE "4:cjc037_0731"
    INDEX 01 03:55:17
  TRACK 85 AUDIO
    TITLE "0:"
    INDEX 01 03:56:61
  TRACK 86 AUDIO
    TITLE "5:cjc037_0732"
    INDEX 01 03:57:39
  TRACK 87 AUDIO
    TITLE "0:"
    INDEX 01 04:01:53
  TRACK 88 AUDIO
    TITLE "6:cjc037_0733"
    INDEX 01 04:05:11
  TRACK 89 AUDIO
    TITLE "0:"
    INDEX 01 04:08:35
  TRACK 90 AUDIO
    TITLE "7:cjc037_0734"
    INDEX 01 04:11:71
  TRACK 91 AUDIO
    TITLE "0:"
    INDEX 01 04:14:61
  TRACK 92 AUDIO
    TITLE "4:cjc037_0735"
    INDEX 01 04:17:19
  TRACK 93 AUDIO
    TITLE "0:"
    INDEX 01 04:19:10
  TRACK 94 AUDIO
    TITLE "5:cjc037_0736"
    INDEX 01 04:19:61
  TRACK 95 AUDIO
    TITLE "0:"
    INDEX 01 04:25:28
  TRACK 96 AUDIO
    TITLE "6:cjc037_0737"
    INDEX 01 04:28:63
  TRACK 97 AUDIO
    TITLE "0:"
    INDEX 01 04:33:41
  TRACK 98 AUDIO
    TITLE "7:cjc037_0738"
    INDEX 01 04:37:02
  TRACK 99 AUDIO
    TITLE "0:"
    INDEX 01 04:40:59
  TRACK 100 AUDIO
    TITLE "4:cjc037_0739"
    INDEX 01 04:43:18
  TRACK 101 AUDIO
    TITLE "0:"
    INDEX 01 04:45:05
  TRACK 102 AUDIO
    TITLE "5:cjc037_0740"
    INDEX 01 04:45:60
  TRACK 103 AUDIO
    TITLE "0:"
    INDEX 01 04:53:14
  TRACK 104 AUDIO
    TITLE "6:cjc037_0741"
    INDEX 01 04:56:48
  TRACK 105 AUDIO
    TITLE "0:"
    INDEX 01 05:00:73
  TRACK 106 AUDIO
    TITLE "7:cjc037_0742"
    INDEX 01 05:04:38
  TRACK 107 AUDIO
    TITLE "0:"
    INDEX 01 05:08:02
